# Blender v2.93.5 OBJ File: 'parkinglot.blend'
# www.blender.org
mtllib road_04.mtl
o Road_02_Cube.004
v -5.000000 -1.110426 5.000000
v -5.000000 0.889574 5.000000
v -5.000000 -1.110426 -5.000000
v -5.000000 0.889574 -5.000000
v 5.000000 -1.110426 5.000000
v 5.000000 0.889574 5.000000
v 5.000000 -1.110426 -5.000000
v 5.000000 0.889574 -5.000000
v 4.333333 -1.110426 -5.000000
v 5.000000 0.889574 -5.000000
v -4.333334 -1.110426 -5.000000
v -4.333333 0.889574 -5.000000
v 4.333333 0.889574 -5.000000
v 4.333333 0.889574 -5.000000
v -4.333333 -1.110426 5.000000
v -5.000000 1.388772 -5.000000
v 4.333333 -1.110426 5.000000
v 4.333333 0.889574 4.993412
v -4.333333 1.388772 -5.000000
v -4.333334 1.388772 5.000000
v -5.000000 1.388772 5.000000
v -4.333334 0.889574 5.000000
v 4.333333 0.889574 4.326745
v 5.000000 0.889574 4.326746
v -4.333334 0.889574 4.326746
v 5.000000 1.388772 5.000000
v 5.000000 1.388772 4.326746
v 4.333333 1.388772 4.993412
v -4.333334 1.388772 5.000000
v 4.333333 1.388772 4.326745
v -4.333334 1.388772 4.326746
v 4.333333 1.388772 4.326745
v 5.000000 1.388772 4.326746
v 4.333333 1.388772 -5.000000
v 5.000000 1.388772 -5.000000
vt 0.625000 0.000000
vt 0.375000 0.250000
vt 0.375000 0.000000
vt 0.625000 0.483333
vt 0.375000 0.500000
vt 0.375000 0.483333
vt 0.625000 0.500000
vt 0.375000 0.750000
vt 0.625000 0.983333
vt 0.375000 1.000000
vt 0.375000 0.983333
vt 0.358333 0.750000
vt 0.358333 0.500000
vt 0.625000 0.266667
vt 0.858333 0.750000
vt 0.858333 0.750000
vt 0.625000 1.000000
vt 0.625000 1.000000
vt 0.141667 0.500000
vt 0.125000 0.750000
vt 0.125000 0.500000
vt 0.625000 0.750000
vt 0.375000 0.766667
vt 0.141667 0.750000
vt 0.625000 0.766667
vt 0.875000 0.500000
vt 0.858333 0.500000
vt 0.625000 0.250000
vt 0.625000 0.266667
vt 0.625000 0.250000
vt 0.375000 0.266667
vt 0.000000 0.000000
vt 0.000000 0.000000
vt 0.000000 0.000000
vt 0.000000 0.000000
vt 0.000000 0.000000
vt 0.000000 0.000000
vt 0.625000 0.983333
vt 0.000000 0.000000
vt 0.625000 0.766667
vt 0.625000 0.750000
vt 0.000000 0.000000
vt 0.000000 0.000000
vt 0.000000 0.000000
vt 0.000000 0.000000
vt 0.000000 0.000000
vt 0.000000 0.000000
vt 0.000000 0.000000
vt 0.000000 0.000000
vt 0.625000 0.983333
vt 0.875000 0.750000
vt 0.625000 0.000000
vt 0.000000 0.000000
vn -1.0000 0.0000 0.0000
vn 0.0000 0.0000 -1.0000
vn 1.0000 0.0000 0.0000
vn 0.0000 0.0000 1.0000
vn 0.0000 -1.0000 0.0000
vn 0.0008 0.0033 1.0000
vn 0.0000 1.0000 -0.0000
vn 0.0008 0.0000 1.0000
vn -0.0099 0.0000 1.0000
vn -0.0099 0.0033 0.9999
usemtl None
s off
f 2/1/1 3/2/1 1/3/1
f 14/4/2 7/5/2 9/6/2
f 8/7/3 5/8/3 7/5/3
f 22/9/4 1/10/4 15/11/4
f 7/5/5 17/12/5 9/13/5
f 12/14/3 20/15/3 22/16/3
f 22/9/4 21/17/4 2/18/4
f 11/19/5 1/20/5 3/21/5
f 6/22/4 17/23/4 5/8/4
f 15/24/5 9/13/5 17/12/5
f 9/6/2 12/14/2 14/4/2
f 22/9/6 17/23/6 18/25/6
f 16/26/7 20/15/7 19/27/7
f 4/28/2 19/29/2 12/14/2
f 2/1/1 16/30/1 4/28/1
f 4/28/2 11/31/2 3/2/2
f 22/32/1 31/33/1 25/34/1
f 23/35/1 34/36/1 14/37/1
f 18/25/8 29/38/8 22/9/8
f 12/14/7 23/35/7 14/37/7
f 27/39/7 28/40/7 26/41/7
f 28/40/7 31/33/7 29/38/7
f 23/35/2 27/39/2 24/42/2
f 25/34/2 30/43/2 23/35/2
f 24/42/3 26/44/3 6/45/3
f 6/22/9 28/40/9 18/25/9
f 35/46/7 32/47/7 33/48/7
f 24/42/4 32/47/4 23/35/4
f 14/37/2 35/46/2 10/49/2
f 10/49/3 33/48/3 24/42/3
f 2/1/1 4/28/1 3/2/1
f 14/4/2 8/7/2 7/5/2
f 8/7/3 6/22/3 5/8/3
f 22/9/4 2/18/4 1/10/4
f 7/5/5 5/8/5 17/12/5
f 12/14/3 19/29/3 20/15/3
f 22/9/4 20/50/4 21/17/4
f 11/19/5 15/24/5 1/20/5
f 6/22/10 18/25/10 17/23/10
f 15/24/5 11/19/5 9/13/5
f 9/6/2 11/19/2 12/14/2
f 22/9/4 15/24/4 17/23/4
f 16/26/7 21/51/7 20/15/7
f 4/28/2 16/30/2 19/29/2
f 2/1/1 21/52/1 16/30/1
f 4/28/2 12/14/2 11/31/2
f 22/32/1 29/53/1 31/33/1
f 23/35/1 32/47/1 34/36/1
f 18/25/8 28/40/8 29/38/8
f 12/14/7 25/34/7 23/35/7
f 27/39/7 30/43/7 28/40/7
f 28/40/7 30/43/7 31/33/7
f 23/35/2 30/43/2 27/39/2
f 25/34/2 31/33/2 30/43/2
f 24/42/3 27/39/3 26/44/3
f 6/22/9 26/41/9 28/40/9
f 35/46/7 34/36/7 32/47/7
f 24/42/4 33/48/4 32/47/4
f 14/37/2 34/36/2 35/46/2
f 10/49/3 35/46/3 33/48/3
l 10 8
l 14 13
