# Blender v2.93.5 OBJ File: 'parkinglot.blend'
# www.blender.org
mtllib parking_spot.mtl
o Parking_space_Cube.012
v 4.842081 -1.098449 6.536735
v 4.842081 0.901551 6.536735
v -5.162309 -1.098449 6.536735
v -5.162309 0.901551 6.536735
v 4.842081 -1.098449 -6.212780
v 4.842081 0.901551 -6.212780
v -5.162310 -1.098449 -6.212780
v -5.162310 0.901551 -6.212780
v -5.162310 -1.098449 -5.546113
v -5.162310 1.398345 -6.212780
v -5.162309 -1.098449 5.870069
v -5.162309 0.901551 5.870068
v -5.162310 1.398345 -5.546113
v -5.162310 0.901551 -5.546113
v 4.842081 -1.098449 5.870068
v 4.842081 -1.098449 -5.546113
v 4.842081 0.901551 -5.546113
v 4.842081 1.398345 -5.546113
v 4.842081 1.398345 -6.212780
v 4.842081 0.901551 5.870069
v 4.175414 -1.098449 6.536735
v 4.175414 0.901551 6.536735
v 4.175414 -1.098449 -6.212780
v 4.175414 0.901551 -6.212780
v 4.175414 1.398345 -5.546113
v 4.175414 1.398345 -6.212780
v 4.175414 0.901551 -5.546113
v 4.175414 0.901551 5.870069
v 4.175414 -1.098449 5.870068
v 4.175414 -1.098449 -5.546113
v 4.842081 1.398345 5.870069
v 4.842081 1.398345 6.536735
v 4.842081 1.398345 -5.546113
v 4.175414 1.398345 -5.546113
v 4.175414 1.398345 5.870069
v 4.175414 1.398345 6.536735
vt 0.625000 0.016447
vt 0.375000 0.250000
vt 0.375000 0.016447
vt 0.625000 0.483333
vt 0.375000 0.500000
vt 0.375000 0.483333
vt 0.625000 0.733553
vt 0.375000 0.750000
vt 0.375000 0.733553
vt 0.625000 0.983333
vt 0.375000 1.000000
vt 0.375000 0.983333
vt 0.358333 0.750000
vt 0.358333 0.733553
vt 0.625000 0.500000
vt 0.625000 0.500000
vt 0.625000 0.936185
vt 0.625000 0.250000
vt 0.625000 0.950659
vt 0.141667 0.733553
vt 0.125000 0.750000
vt 0.125000 0.733553
vt 0.625000 0.750000
vt 0.375000 0.766667
vt 0.358333 0.500000
vt 0.625000 0.266667
vt 0.625000 0.766667
vt 0.641667 0.500000
vt 0.842983 0.718202
vt 0.641667 0.733553
vt 0.641667 0.733553
vt 0.625000 0.750000
vt 0.625000 0.733553
vt 0.625000 0.766667
vt 0.641667 0.750000
vt 0.375000 0.266667
vt 0.641667 0.500000
vt 0.625000 0.000000
vt 0.625000 0.016447
vt 0.141667 0.750000
vt 0.141667 0.500000
vt 0.125000 0.500000
vt 0.625000 0.936185
vt 0.375000 0.000000
vt 0.641667 0.733553
vt 0.858333 0.750000
vt 0.641667 0.750000
vt 0.625000 0.983333
vt 0.625000 0.950659
vt 0.625000 1.000000
vt 0.625000 1.000000
vt 0.625000 0.483333
vt 0.641667 0.750000
vt 0.625000 0.000000
vt 0.842983 0.718202
vt 0.625000 0.766667
vn 0.0000 0.0000 1.0000
vn -1.0000 0.0000 0.0000
vn 0.0000 0.0000 -1.0000
vn 1.0000 0.0000 0.0000
vn 0.0000 -1.0000 0.0000
vn 0.0000 1.0000 0.0000
usemtl None
s off
f 22/1/1 3/2/1 21/3/1
f 14/4/2 7/5/2 9/6/2
f 24/7/3 5/8/3 23/9/3
f 20/10/4 1/11/4 15/12/4
f 23/9/5 16/13/5 30/14/5
f 14/4/2 10/15/2 8/16/2
f 28/17/6 4/18/6 22/19/6
f 29/20/5 1/21/5 21/22/5
f 6/23/4 16/24/4 5/8/4
f 29/20/5 9/25/5 30/14/5
f 9/6/2 12/26/2 14/4/2
f 20/10/4 16/24/4 17/27/4
f 14/28/6 28/29/6 27/30/6
f 25/31/6 19/32/6 26/33/6
f 6/23/4 18/34/4 17/27/4
f 8/16/3 26/33/3 24/7/3
f 17/35/1 25/31/1 27/30/1
f 4/18/2 11/36/2 3/2/2
f 27/30/1 13/37/1 14/28/1
f 24/7/3 19/32/3 6/23/3
f 13/37/6 26/33/6 10/15/6
f 2/38/1 36/39/1 22/1/1
f 15/40/5 30/14/5 16/13/5
f 11/41/5 21/22/5 3/42/5
f 22/19/2 35/43/2 28/17/2
f 7/5/5 30/14/5 9/25/5
f 8/16/3 23/9/3 7/5/3
f 2/38/1 21/3/1 1/44/1
f 34/45/6 31/46/6 33/47/6
f 31/48/6 36/49/6 32/50/6
f 17/27/4 31/48/4 20/10/4
f 20/10/4 32/50/4 2/51/4
f 28/29/2 34/45/2 27/30/2
f 27/30/3 33/47/3 17/35/3
f 22/1/1 4/18/1 3/2/1
f 14/4/2 8/16/2 7/5/2
f 24/7/3 6/23/3 5/8/3
f 20/10/4 2/51/4 1/11/4
f 23/9/5 5/8/5 16/13/5
f 14/4/2 13/52/2 10/15/2
f 28/17/6 12/26/6 4/18/6
f 29/20/5 15/40/5 1/21/5
f 6/23/4 17/27/4 16/24/4
f 29/20/5 11/41/5 9/25/5
f 9/6/2 11/41/2 12/26/2
f 20/10/4 15/40/4 16/24/4
f 14/28/6 12/26/6 28/29/6
f 25/31/6 18/53/6 19/32/6
f 6/23/4 19/32/4 18/34/4
f 8/16/3 10/15/3 26/33/3
f 17/35/1 18/53/1 25/31/1
f 4/18/2 12/26/2 11/36/2
f 27/30/1 25/31/1 13/37/1
f 24/7/3 26/33/3 19/32/3
f 13/37/6 25/31/6 26/33/6
f 2/38/1 32/54/1 36/39/1
f 15/40/5 29/20/5 30/14/5
f 11/41/5 29/20/5 21/22/5
f 22/19/2 36/49/2 35/43/2
f 7/5/5 23/9/5 30/14/5
f 8/16/3 24/7/3 23/9/3
f 2/38/1 22/1/1 21/3/1
f 34/45/6 35/55/6 31/46/6
f 31/48/6 35/43/6 36/49/6
f 17/27/4 33/56/4 31/48/4
f 20/10/4 31/48/4 32/50/4
f 28/29/2 35/55/2 34/45/2
f 27/30/3 34/45/3 33/47/3
